<?xml version="1.0" standalone="no"?>
<!DOCTYPE svg PUBLIC "-//W3C//DTD SVG 20010904//EN"
 "http://www.w3.org/TR/2001/REC-SVG-20010904/DTD/svg10.dtd">
<svg version="1.0" xmlns="http://www.w3.org/2000/svg"
 width="400.000000pt" height="400.000000pt" viewBox="0 0 400.000000 400.000000"
 preserveAspectRatio="xMidYMid meet">
<metadata>
Created by potrace 1.16, written by Peter Selinger 2001-2019
</metadata>
<g transform="translate(0.000000,400.000000) scale(0.074906,-0.074906)"
fill="#000000" stroke="none">
<path d="M0 2670 l0 -2670 2670 0 2670 0 0 2670 0 2670 -2670 0 -2670 0 0
-2670z m1863 1839 c96 -83 181 -143 242 -170 44 -19 44 -19 177 5 73 13 169
27 213 31 l80 7 -42 38 c-26 23 -77 51 -130 71 -98 39 -90 46 35 29 189 -25
367 -107 487 -225 72 -71 112 -124 84 -112 -215 93 -297 112 -479 112 -149 -1
-197 -9 -332 -61 l-46 -18 -58 45 c-104 79 -344 319 -320 319 4 0 43 -32 89
-71z m1003 11 c71 -32 129 -87 154 -144 23 -52 34 -136 20 -156 -8 -13 -10
-12 -10 5 -1 63 -107 204 -225 298 -56 45 -41 44 61 -3z m-6 -350 c25 -5 70
-17 102 -26 51 -15 58 -20 72 -58 43 -111 201 -253 383 -343 85 -42 126 -56
172 -60 34 -3 61 -3 61 -1 0 15 -53 118 -60 118 -5 0 -18 -10 -30 -22 -16 -18
-20 -19 -20 -6 0 51 37 97 79 98 19 0 22 -4 18 -21 -4 -15 14 -44 74 -115 44
-52 77 -100 73 -105 -13 -22 -90 -49 -139 -49 -71 0 -119 16 -211 70 -211 125
-403 176 -507 136 -40 -15 -49 -15 -101 -2 -137 36 -280 30 -419 -19 -101 -35
-172 -81 -263 -170 -90 -89 -142 -172 -182 -293 -23 -67 -26 -94 -26 -212 0
-120 3 -144 27 -215 38 -115 91 -199 182 -290 89 -89 185 -146 315 -186 96
-30 279 -33 380 -5 156 42 312 141 412 262 48 58 127 198 118 208 -3 2 -75 16
-162 30 -86 14 -181 35 -212 46 -66 25 -160 92 -197 141 -90 118 -121 278 -77
399 l13 35 6 -65 c16 -145 94 -261 216 -318 l58 -27 339 4 338 3 -6 -93 c-9
-125 -32 -248 -62 -333 -179 -513 -749 -803 -1282 -650 -375 107 -655 397
-764 791 -29 105 -32 399 -5 506 51 204 137 363 276 509 173 182 395 299 646
338 71 11 301 5 365 -10z m-827 -2680 c108 -51 167 -137 175 -256 6 -91 -15
-156 -70 -219 -112 -128 -303 -140 -428 -28 -73 66 -100 126 -99 223 1 86 11
121 56 184 79 112 241 155 366 96z m-1344 -6 c19 -8 50 -26 69 -40 33 -26 92
-99 92 -116 0 -4 -31 -8 -69 -8 -52 0 -72 4 -82 17 -19 22 -88 53 -122 53 -94
1 -187 -93 -187 -188 0 -155 201 -240 310 -131 27 28 34 30 94 27 l65 -3 -16
-33 c-23 -48 -83 -105 -139 -133 -66 -33 -187 -34 -255 -3 -58 27 -120 90
-150 151 -33 67 -33 178 -1 248 69 150 242 220 391 159z m4321 -5 c63 -28 150
-117 150 -154 0 -3 -30 -5 -66 -5 -56 0 -71 4 -96 25 -83 70 -201 51 -265 -44
-79 -117 10 -281 154 -281 43 0 119 34 136 61 10 16 24 19 79 19 38 0 68 -3
68 -8 0 -22 -75 -113 -115 -140 -202 -134 -471 11 -469 253 1 221 220 362 424
274z m-2598 -86 l3 -108 93 -3 92 -3 0 -59 0 -60 -95 0 -95 0 0 -125 0 -125
-55 0 -55 0 0 295 0 295 55 0 54 0 3 -107z m378 -188 l0 -295 -96 0 -96 0 36
40 36 40 0 255 0 255 60 0 60 0 0 -295z m1554 275 c110 -42 186 -151 186 -267
l0 -63 -145 0 -145 0 0 60 0 59 82 3 82 3 -34 38 c-43 49 -78 67 -134 67 -58
0 -93 -14 -134 -53 -84 -81 -68 -225 31 -285 68 -42 156 -37 215 13 25 21 40
25 96 25 36 0 66 -3 66 -7 -1 -20 -74 -106 -110 -128 -158 -100 -359 -44 -445
125 -27 52 -32 165 -10 231 23 69 110 158 175 182 65 22 158 21 224 -3z
m-1004 -45 l0 -54 -147 -3 -148 -3 0 -175 0 -175 148 -3 147 -3 0 -54 0 -55
-210 0 -210 0 0 290 0 290 210 0 210 0 0 -55z m570 0 l0 -55 -235 0 -235 0 0
55 0 55 235 0 235 0 0 -55z m-2840 -132 c0 -155 2 -171 23 -208 45 -81 154
-107 231 -54 65 44 71 65 74 257 l4 172 60 0 60 0 -5 -177 c-5 -204 -12 -235
-74 -303 -133 -148 -359 -123 -457 50 l-31 55 -3 188 -4 187 61 0 61 0 0 -167z
m2670 -188 l0 -215 -96 0 -95 0 20 28 c11 16 27 35 36 42 12 10 15 42 15 186
l0 174 60 0 60 0 0 -215z m-2880 95 l0 -61 -132 3 -133 3 -3 58 -3 57 136 0
135 0 0 -60z m2448 -7 l-3 -58 -107 -3 -108 -3 0 61 0 60 110 0 111 0 -3 -57z"/>
<path d="M1835 1381 c-52 -23 -88 -67 -104 -123 -31 -111 60 -228 178 -228 83
0 152 52 175 131 45 151 -106 285 -249 220z"/>
</g>
</svg>
